<svg style="position: absolute; width: 0; height: 0; overflow: hidden;" version="1.1" xmlns="http://www.w3.org/2000/svg">
  <defs>
    <symbol id="save" viewBox="0 0 24 24">
      <title>save</title>
      <path d="M0 0h24v24H0z" fill="none"></path>
      <path d="M17 3H5c-1.11 0-2 .9-2 2v14c0 1.1.89 2 2 2h14c1.1 0 2-.9 2-2V7l-4-4zm-5 16c-1.66 0-3-1.34-3-3s1.34-3 3-3 3 1.34 3 3-1.34 3-3 3zm3-10H5V5h10v4z"></path>
    </symbol>
    <symbol id="add-item" viewBox="0 0 24 24">
      <title>add notebook</title>
      <path d="M19 3H5c-1.11 0-2 .9-2 2v14c0 1.1.89 2 2 2h14c1.1 0 2-.9 2-2V5c0-1.1-.9-2-2-2zm-2 10h-4v4h-2v-4H7v-2h4V7h2v4h4v2z"/>
      <path d="M0 0h24v24H0z" fill="none"/>
    </symbol>
    <symbol id="add-note" viewBox="0 0 24 24">
      <title>add note</title>
      <path d="M0 0h24v24H0z" fill="none"/>
      <path d="M14 2H6c-1.1 0-1.99.9-1.99 2L4 20c0 1.1.89 2 1.99 2H18c1.1 0 2-.9 2-2V8l-6-6zm2 14h-3v3h-2v-3H8v-2h3v-3h2v3h3v2zm-3-7V3.5L18.5 9H13z"/>
    </symbol>
    <symbol id="edit-note" viewBox="0 0 24 24">
      <title>edit note</title>
      <path d="M3 17.25V21h3.75L17.81 9.94l-3.75-3.75L3 17.25zM20.71 7.04c.39-.39.39-1.02 0-1.41l-2.34-2.34c-.39-.39-1.02-.39-1.41 0l-1.83 1.83 3.75 3.75 1.83-1.83z"/>
      <path d="M0 0h24v24H0z" fill="none"/>
    </symbol>
    <symbol id="delete-note" viewBox="0 0 24 24">
      <title>delete note</title>
      <path fill="none" d="M0 0h24v24H0V0z"/>
      <path d="M6 19c0 1.1.9 2 2 2h8c1.1 0 2-.9 2-2V7H6v12zm2.46-7.12l1.41-1.41L12 12.59l2.12-2.12 1.41 1.41L13.41 14l2.12 2.12-1.41 1.41L12 15.41l-2.12 2.12-1.41-1.41L10.59 14l-2.13-2.12zM15.5 4l-1-1h-5l-1 1H5v2h14V4z"/>
      <path fill="none" d="M0 0h24v24H0z"/>
    </symbol>
    <symbol id="close-note" viewBox="0 0 24 24">
      <title>close note</title>
      <path d="M19 6.41L17.59 5 12 10.59 6.41 5 5 6.41 10.59 12 5 17.59 6.41 19 12 13.41 17.59 19 19 17.59 13.41 12z"/>
      <path d="M0 0h24v24H0z" fill="none"/>
    </symbol>
    <symbol id="note" viewBox="0 0 24 24">
      <title>note</title>
      <path d="M3 18h12v-2H3v2zM3 6v2h18V6H3zm0 7h18v-2H3v2z"/>
      <path fill="none" d="M0 0h24v24H0V0z"/>
    </symbol>
    <symbol id="map" viewBox="0 0 24 24">
      <title>map</title>
      <path d="M20.5 3l-.16.03L15 5.1 9 3 3.36 4.9c-.21.07-.36.25-.36.48V20.5c0 .28.22.5.5.5l.16-.03L9 18.9l6 2.1 5.64-1.9c.21-.07.36-.25.36-.48V3.5c0-.28-.22-.5-.5-.5zM15 19l-6-2.11V5l6 2.11V19z"/>
      <path d="M0 0h24v24H0z" fill="none"/>
    </symbol>
    <symbol id="my-location" viewBox="0 0 24 24">
      <title>my location</title>
      <path d="M0 0h24v24H0z" fill="none"/>
      <path d="M12 8c-2.21 0-4 1.79-4 4s1.79 4 4 4 4-1.79 4-4-1.79-4-4-4zm8.94 3c-.46-4.17-3.77-7.48-7.94-7.94V1h-2v2.06C6.83 3.52 3.52 6.83 3.06 11H1v2h2.06c.46 4.17 3.77 7.48 7.94 7.94V23h2v-2.06c4.17-.46 7.48-3.77 7.94-7.94H23v-2h-2.06zM12 19c-3.87 0-7-3.13-7-7s3.13-7 7-7 7 3.13 7 7-3.13 7-7 7z"/>
    </symbol>
    <symbol id="place" viewBox="0 0 24 24">
      <title>place</title>
      <path d="M12 2C8.13 2 5 5.13 5 9c0 5.25 7 13 7 13s7-7.75 7-13c0-3.87-3.13-7-7-7zm0 9.5c-1.38 0-2.5-1.12-2.5-2.5s1.12-2.5 2.5-2.5 2.5 1.12 2.5 2.5-1.12 2.5-2.5 2.5z"/>
      <path d="M0 0h24v24H0z" fill="none"/>
    </symbol>
    <symbol id="launch" viewBox="0 0 24 24">
      <title>launch</title>
      <path d="M0 0h24v24H0z" fill="none"/>
      <path d="M19 19H5V5h7V3H5c-1.11 0-2 .9-2 2v14c0 1.1.89 2 2 2h14c1.1 0 2-.9 2-2v-7h-2v7zM14 3v2h3.59l-9.83 9.83 1.41 1.41L19 6.41V10h2V3h-7z"/>
    </symbol>
    <symbol id="list" viewBox="0 0 24 24">
      <title>list</title>
      <path d="M4 14h4v-4H4v4zm0 5h4v-4H4v4zM4 9h4V5H4v4zm5 5h12v-4H9v4zm0 5h12v-4H9v4zM9 5v4h12V5H9z"/>
      <path d="M0 0h24v24H0z" fill="none"/>
    </symbol>
    <symbol id="arrow-forward" viewBox="0 0 24 24">
      <title>forward</title>
      <path d="M0 0h24v24H0z" fill="none"/>
      <path d="M12 4l-1.41 1.41L16.17 11H4v2h12.17l-5.58 5.59L12 20l8-8z"/>
    </symbol>
    <symbol id="arrow-back" viewBox="0 0 24 24">
      <title>back</title>
      <path d="M0 0h24v24H0z" fill="none"/>
      <path d="M20 11H7.83l5.59-5.59L12 4l-8 8 8 8 1.41-1.41L7.83 13H20v-2z"/>
    </symbol>
    <symbol id="check" viewBox="0 0 24 24">
      <title>check</title>
      <path d="M0 0h24v24H0z" fill="none"/>
      <path d="M9 16.17L4.83 12l-1.42 1.41L9 19 21 7l-1.41-1.41z"/>
    </symbol>
    <symbol id="logout" viewBox="0 0 24 24">
      <title>logout</title>
      <path fill="none" d="M0 0h24v24H0z"/>
      <path d="M13 3h-2v10h2V3zm4.83 2.17l-1.42 1.42C17.99 7.86 19 9.81 19 12c0 3.87-3.13 7-7 7s-7-3.13-7-7c0-2.19 1.01-4.14 2.58-5.42L6.17 5.17C4.23 6.82 3 9.26 3 12c0 4.97 4.03 9 9 9s9-4.03 9-9c0-2.74-1.23-5.18-3.17-6.83z"/>
    </symbol>
    <symbol id="settings" viewBox="0 0 20 20">
      <title>settings</title>
      <path fill="none" d="M0 0h20v20H0V0z"/>
      <path d="M15.95 10.78c.03-.25.05-.51.05-.78s-.02-.53-.06-.78l1.69-1.32c.15-.12.19-.34.1-.51l-1.6-2.77c-.1-.18-.31-.24-.49-.18l-1.99.8c-.42-.32-.86-.58-1.35-.78L12 2.34c-.03-.2-.2-.34-.4-.34H8.4c-.2 0-.36.14-.39.34l-.3 2.12c-.49.2-.94.47-1.35.78l-1.99-.8c-.18-.07-.39 0-.49.18l-1.6 2.77c-.1.18-.06.39.1.51l1.69 1.32c-.04.25-.07.52-.07.78s.02.53.06.78L2.37 12.1c-.15.12-.19.34-.1.51l1.6 2.77c.1.18.31.24.49.18l1.99-.8c.42.32.86.58 1.35.78l.3 2.12c.04.2.2.34.4.34h3.2c.2 0 .37-.14.39-.34l.3-2.12c.49-.2.94-.47 1.35-.78l1.99.8c.18.07.39 0 .49-.18l1.6-2.77c.1-.18.06-.39-.1-.51l-1.67-1.32zM10 13c-1.65 0-3-1.35-3-3s1.35-3 3-3 3 1.35 3 3-1.35 3-3 3z"/>
    </symbol>
    <symbol id="verified-user" viewBox="0 0 24 24">
      <title>verified user</title>
      <path d="M0 0h24v24H0z" fill="none"/>
      <path d="M12 1L3 5v6c0 5.55 3.84 10.74 9 12 5.16-1.26 9-6.45 9-12V5l-9-4zm-2 16l-4-4 1.41-1.41L10 14.17l6.59-6.59L18 9l-8 8z"/>
    </symbol>
    <symbol id="search" viewBox="0 0 24 24">
      <title>search</title>
      <path d="M15.5 14h-.79l-.28-.27C15.41 12.59 16 11.11 16 9.5 16 5.91 13.09 3 9.5 3S3 5.91 3 9.5 5.91 16 9.5 16c1.61 0 3.09-.59 4.23-1.57l.27.28v.79l5 4.99L20.49 19l-4.99-5zm-6 0C7.01 14 5 11.99 5 9.5S7.01 5 9.5 5 14 7.01 14 9.5 11.99 14 9.5 14z"/>
      <path d="M0 0h24v24H0z" fill="none"/>
    </symbol>
    <symbol id="menu" viewBox="0 0 24 24">
      <title>Menu</title>
      <path d="M0 0h24v24H0z" fill="none"/>
      <path d="M3 18h18v-2H3v2zm0-5h18v-2H3v2zm0-7v2h18V6H3z"/>
    </symbol>
    <symbol id="publish" viewBox="0 0 24 24">
      <title>Publish</title>
      <path d="M0 0h24v24H0z" fill="none"/>
      <path d="M5 4v2h14V4H5zm0 10h4v6h6v-6h4l-7-7-7 7z"/>
    </symbol>
    <!--
    <symbol id="" viewBox="0 0 24 24">
        <title></title>
    </symbol>
    -->
  </defs>
</svg>
